<svg id="ETH" xmlns="http://www.w3.org/2000/svg" viewBox="0 0 140.7 22.86"><defs><style>.cls-1{fill:#231f20;}</style></defs><path class="cls-1" d="M109.18,69.54c-.81,4-3.91,4.22-4.53,4.22a2.54,2.54,0,0,1-2.8-2.71,8.41,8.41,0,0,1,.16-1.44l1.92-9.56v0h-2.27l-2,9.8,0,.14a6.59,6.59,0,0,0-.16,1.41,4.12,4.12,0,0,0,4.31,4.4,5.79,5.79,0,0,0,4.5-1.84l-.29,1.61v0h2.24l3.08-15.53v0h-2.3Z" transform="translate(-22.68 -52.91)"/><path class="cls-1" d="M124.63,59.83a5.32,5.32,0,0,0-4.28,2l.35-1.75v0h-2.23l-3.09,15.52v0h2.27l1.89-9.52A4.87,4.87,0,0,1,124,61.84a2.59,2.59,0,0,1,2.17,1.09l0,0L128,61.31l0,0A4.22,4.22,0,0,0,124.63,59.83Z" transform="translate(-22.68 -52.91)"/><polygon class="cls-1" points="64.47 9.08 64.46 9.12 72.2 9.12 61.9 20.77 61.89 20.77 61.5 22.67 72.48 22.67 72.87 20.66 64.67 20.66 75 9.02 75 9.01 75.39 7.11 64.85 7.11 64.47 9.08"/><polygon class="cls-1" points="105.65 22.64 105.64 22.67 107.91 22.67 111 7.11 108.77 7.11 105.65 22.64"/><path class="cls-1" d="M159.07,59.83a5.79,5.79,0,0,0-4.44,1.75l1.76-8.67h-2.27l-4.55,22.67h2.26l1.9-9.52c.81-4,3.94-4.22,4.56-4.22a2.51,2.51,0,0,1,2.76,2.7A8.19,8.19,0,0,1,160.9,66L159,75.58h2.27l2-9.8a8.58,8.58,0,0,0,.15-1.55A4.12,4.12,0,0,0,159.07,59.83Z" transform="translate(-22.68 -52.91)"/><path class="cls-1" d="M144,59.83c-4.11,0-7,2.89-7.92,8a13.09,13.09,0,0,0-.23,2.39c0,3.45,2.1,5.6,5.48,5.6a7.2,7.2,0,0,0,5.18-2.18l0,0L145.26,72l0,0,0,0a4.77,4.77,0,0,1-3.72,1.79c-1.61,0-3.33-1-3.33-3.65a11.69,11.69,0,0,1,.25-2.32,8.88,8.88,0,0,1,2-4.45,4.59,4.59,0,0,1,3.4-1.5,3.26,3.26,0,0,1,3,1.71l0,0,1.67-1.41,0,0,0,0A5.06,5.06,0,0,0,144,59.83Z" transform="translate(-22.68 -52.91)"/><polygon class="cls-1" points="109.61 2.83 111.89 2.83 112.45 0 110.19 0 109.61 2.83"/><polygon class="cls-1" points="87.57 2.83 89.84 2.83 90.4 0 88.14 0 87.57 2.83"/><polygon class="cls-1" points="81.52 2.83 83.79 2.83 84.36 0 82.1 0 81.52 2.83"/><polygon class="cls-1" points="51.23 8.79 46.13 8.79 47.92 0 4.55 0 0 22.68 17.29 22.68 18.42 17.01 8.21 17.01 8.83 13.89 19.04 13.89 20.07 8.79 9.86 8.79 10.48 5.67 26.66 5.67 23.24 22.68 30.33 22.68 33.74 5.67 39.69 5.67 36.28 22.68 43.37 22.68 45.11 13.89 50.21 13.89 48.47 22.68 55.55 22.68 60.11 0 53.02 0 51.23 8.79"/></svg>